<?xml version="1.0" encoding="UTF-8"?>
<svg xmlns="http://www.w3.org/2000/svg" viewBox="0 0 960 700" role="img" aria-labelledby="title desc">
  <title id="title">价量是否同步示意图</title>
  <desc id="desc">教学示意图。左右两格共用同一条抽象价动：左格成交量跟上，右格成交量没跟上。价和量是两个问题。放量没有方向，不是开仓指令，不是真实行情。</desc>
  <rect width="960" height="700" fill="#f8fafc"/>
  <rect width="960" height="64" fill="#ffffff"/>
  <line x1="0" y1="64" x2="960" y2="64" stroke="#e2e8f0"/>
  <text x="28" y="40" font-family="PingFang SC, Hiragino Sans GB, Noto Sans SC, Microsoft YaHei, sans-serif" font-size="20" font-weight="700" fill="#0f172a">价量是否同步示意图</text>
  <rect x="820" y="19" width="112" height="26" rx="4" fill="#fff7ed" stroke="#fdba74"/>
  <text x="876" y="37" text-anchor="middle" font-family="PingFang SC, Hiragino Sans GB, Noto Sans SC, Microsoft YaHei, sans-serif" font-size="13" font-weight="600" fill="#c2410c">示意图</text>

  <rect x="48" y="76" width="864" height="48" rx="8" fill="#ffffff" stroke="#e2e8f0"/>
  <text x="480" y="96" text-anchor="middle" font-family="PingFang SC, Hiragino Sans GB, Noto Sans SC, Microsoft YaHei, sans-serif" font-size="14" font-weight="700" fill="#0f172a">价回答「做了什么」· 量回答「有没有人参与」</text>
  <text x="480" y="114" text-anchor="middle" font-family="PingFang SC, Hiragino Sans GB, Noto Sans SC, Microsoft YaHei, sans-serif" font-size="12" fill="#475569">两格是同一条抽象价动、不同的量。放量没有方向，不是开仓指令。</text>

  <rect x="48" y="136" width="424" height="392" rx="8" fill="#f0fdf4" stroke="#bbf7d0"/>
  <text x="260" y="164" text-anchor="middle" font-family="PingFang SC, Hiragino Sans GB, Noto Sans SC, Microsoft YaHei, sans-serif" font-size="15" font-weight="700" fill="#15803d">价动且量跟上</text>
  <text x="260" y="184" text-anchor="middle" font-family="PingFang SC, Hiragino Sans GB, Noto Sans SC, Microsoft YaHei, sans-serif" font-size="12" fill="#475569">价格离开整理区，成交量高于对照段</text>

  <text x="68" y="212" font-family="PingFang SC, Hiragino Sans GB, Noto Sans SC, Microsoft YaHei, sans-serif" font-size="12" font-weight="700" fill="#334155">价格（抽象走势）</text>
  <line x1="80" y1="320" x2="440" y2="320" stroke="#e2e8f0"/>
  <rect x="88" y="292" width="148" height="28" rx="4" fill="#e2e8f0"/>
  <text x="162" y="310" text-anchor="middle" font-family="PingFang SC, Hiragino Sans GB, Noto Sans SC, Microsoft YaHei, sans-serif" font-size="11" fill="#64748b">整理区</text>
  <polyline points="88,306 136,300 184,310 236,296 260,288 300,250 340,220 380,196 430,178"
    fill="none" stroke="#0f172a" stroke-width="2.4" stroke-linecap="round" stroke-linejoin="round"/>
  <circle cx="260" cy="288" r="4" fill="#16a34a"/>
  <text x="268" y="278" font-family="PingFang SC, Hiragino Sans GB, Noto Sans SC, Microsoft YaHei, sans-serif" font-size="11" font-weight="600" fill="#15803d">价动</text>

  <text x="68" y="356" font-family="PingFang SC, Hiragino Sans GB, Noto Sans SC, Microsoft YaHei, sans-serif" font-size="12" font-weight="700" fill="#334155">成交量</text>
  <text x="124" y="356" font-family="PingFang SC, Hiragino Sans GB, Noto Sans SC, Microsoft YaHei, sans-serif" font-size="11" fill="#64748b">相对对照段 · 中性灰，不带方向</text>
  <line x1="80" y1="488" x2="440" y2="488" stroke="#e2e8f0"/>
  <rect x="100" y="452" width="28" height="36" fill="#cbd5e1"/>
  <rect x="148" y="446" width="28" height="42" fill="#cbd5e1"/>
  <rect x="196" y="450" width="28" height="38" fill="#cbd5e1"/>
  <text x="162" y="508" text-anchor="middle" font-family="PingFang SC, Hiragino Sans GB, Noto Sans SC, Microsoft YaHei, sans-serif" font-size="10" fill="#64748b">对照段</text>
  <rect x="280" y="404" width="28" height="84" fill="#94a3b8"/>
  <rect x="328" y="388" width="28" height="100" fill="#64748b"/>
  <rect x="376" y="396" width="28" height="92" fill="#94a3b8"/>
  <text x="342" y="380" text-anchor="middle" font-family="PingFang SC, Hiragino Sans GB, Noto Sans SC, Microsoft YaHei, sans-serif" font-size="11" font-weight="600" fill="#334155">量跟上</text>

  <rect x="488" y="136" width="424" height="392" rx="8" fill="#fffbeb" stroke="#fde68a"/>
  <text x="700" y="164" text-anchor="middle" font-family="PingFang SC, Hiragino Sans GB, Noto Sans SC, Microsoft YaHei, sans-serif" font-size="15" font-weight="700" fill="#a16207">价动且量没跟上</text>
  <text x="700" y="184" text-anchor="middle" font-family="PingFang SC, Hiragino Sans GB, Noto Sans SC, Microsoft YaHei, sans-serif" font-size="12" fill="#475569">同一价动形状，成交量低于对照段</text>

  <text x="508" y="212" font-family="PingFang SC, Hiragino Sans GB, Noto Sans SC, Microsoft YaHei, sans-serif" font-size="12" font-weight="700" fill="#334155">价格（同一抽象形状）</text>
  <line x1="520" y1="320" x2="880" y2="320" stroke="#e2e8f0"/>
  <rect x="528" y="292" width="148" height="28" rx="4" fill="#e2e8f0"/>
  <text x="602" y="310" text-anchor="middle" font-family="PingFang SC, Hiragino Sans GB, Noto Sans SC, Microsoft YaHei, sans-serif" font-size="11" fill="#64748b">整理区</text>
  <polyline points="528,306 576,300 624,310 676,296 700,288 740,250 780,220 820,196 870,178"
    fill="none" stroke="#0f172a" stroke-width="2.4" stroke-linecap="round" stroke-linejoin="round"/>
  <circle cx="700" cy="288" r="4" fill="#d97706"/>
  <text x="708" y="278" font-family="PingFang SC, Hiragino Sans GB, Noto Sans SC, Microsoft YaHei, sans-serif" font-size="11" font-weight="600" fill="#a16207">价动</text>

  <text x="508" y="356" font-family="PingFang SC, Hiragino Sans GB, Noto Sans SC, Microsoft YaHei, sans-serif" font-size="12" font-weight="700" fill="#334155">成交量</text>
  <text x="564" y="356" font-family="PingFang SC, Hiragino Sans GB, Noto Sans SC, Microsoft YaHei, sans-serif" font-size="11" fill="#64748b">相对对照段 · 柱变矮</text>
  <line x1="520" y1="488" x2="880" y2="488" stroke="#e2e8f0"/>
  <rect x="540" y="452" width="28" height="36" fill="#cbd5e1"/>
  <rect x="588" y="446" width="28" height="42" fill="#cbd5e1"/>
  <rect x="636" y="450" width="28" height="38" fill="#cbd5e1"/>
  <text x="602" y="508" text-anchor="middle" font-family="PingFang SC, Hiragino Sans GB, Noto Sans SC, Microsoft YaHei, sans-serif" font-size="10" fill="#64748b">对照段</text>
  <rect x="720" y="458" width="28" height="30" fill="#cbd5e1"/>
  <rect x="768" y="466" width="28" height="22" fill="#cbd5e1"/>
  <rect x="816" y="472" width="28" height="16" fill="#cbd5e1"/>
  <text x="782" y="450" text-anchor="middle" font-family="PingFang SC, Hiragino Sans GB, Noto Sans SC, Microsoft YaHei, sans-serif" font-size="11" font-weight="600" fill="#a16207">量没跟上</text>

  <rect x="48" y="540" width="864" height="52" rx="8" fill="#fff7ed" stroke="#fdba74"/>
  <text x="480" y="562" text-anchor="middle" font-family="PingFang SC, Hiragino Sans GB, Noto Sans SC, Microsoft YaHei, sans-serif" font-size="13" font-weight="600" fill="#9a3412">价和量是两个问题。左边不是「该追」，右边不是「假突破、该反手」。</text>
  <text x="480" y="580" text-anchor="middle" font-family="PingFang SC, Hiragino Sans GB, Noto Sans SC, Microsoft YaHei, sans-serif" font-size="12" fill="#9a3412">量只改变观察权重。缩量突破和放量失败都常见。成交量回答不了加仓还是平仓。</text>

  <rect x="80" y="608" width="22" height="4" fill="#0f172a"/>
  <text x="108" y="614" font-family="PingFang SC, Hiragino Sans GB, Noto Sans SC, Microsoft YaHei, sans-serif" font-size="12" fill="#334155">价格（抽象）</text>
  <rect x="220" y="604" width="12" height="10" fill="#94a3b8"/>
  <text x="238" y="614" font-family="PingFang SC, Hiragino Sans GB, Noto Sans SC, Microsoft YaHei, sans-serif" font-size="12" fill="#334155">成交量（总量，无方向）</text>
  <text x="700" y="614" text-anchor="middle" font-family="PingFang SC, Hiragino Sans GB, Noto Sans SC, Microsoft YaHei, sans-serif" font-size="12" fill="#475569">对照段 = 价动之前的相对参照，不是绝对标准</text>
  <text x="480" y="640" text-anchor="middle" font-family="PingFang SC, Hiragino Sans GB, Noto Sans SC, Microsoft YaHei, sans-serif" font-size="13" fill="#334155">要问这些成交是开仓还是平仓，需要再看持仓量，见 OI 组合课。</text>

  <rect x="0" y="660" width="960" height="40" fill="#f1f5f9"/>
  <text x="480" y="685" text-anchor="middle" font-family="PingFang SC, Hiragino Sans GB, Noto Sans SC, Microsoft YaHei, sans-serif" font-size="12" fill="#64748b">示意图 · 教学抽象几何 · 非真实行情 · 不构成交易建议</text>
</svg>
