<?xml version="1.0" encoding="UTF-8"?>
<svg xmlns="http://www.w3.org/2000/svg" viewBox="0 0 960 560" width="960" height="560" role="img" aria-labelledby="title desc">
  <title id="title">资金费率真实行情教学窗</title>
  <desc id="desc">实盘费率大多在零轴附近小幅摆动；偏高或偏低时，价格仍可能沿原方向走一段时间。 真实行情教学窗。历史观察不能代表未来结果。不构成交易建议。不是买卖信号。</desc>
  <rect width="960" height="560" fill="#fffdf8"/>
  <text x="28" y="36" font-family="PingFang SC, Hiragino Sans GB, Noto Sans SC, sans-serif" font-size="20" font-weight="700" fill="#0f172a">资金费率真实行情教学窗</text>
  <rect x="792" y="16" width="140" height="28" rx="6" fill="#1a4d56"/>
  <text x="862" y="35" text-anchor="middle" font-family="PingFang SC, Hiragino Sans GB, Noto Sans SC, sans-serif" font-size="13" font-weight="600" fill="#fffdf8">真实行情</text>
  <text x="28" y="58" font-family="PingFang SC, Hiragino Sans GB, Noto Sans SC, sans-serif" font-size="12" fill="#475569">BTCUSDT · 8h · Binance USDT-M · data.binance.vision · 2024-08-07 → 2024-09-05 UTC</text>
  <rect x="64" y="72" width="872" height="402" fill="#fff" stroke="#d9d0c0"/>
  <line x1="68.84444444444445" y1="371.0364503172042" x2="68.84444444444445" y2="436.405401854424" stroke="#16a34a" stroke-width="1"/><rect x="65.8408888888889" y="384.2520927962763" width="6.007111111111111" height="34.23315439768743" fill="#16a34a"/><line x1="78.53333333333333" y1="354.059461691505" x2="78.53333333333333" y2="432.4742858215399" stroke="#dc2626" stroke-width="1"/><rect x="75.52977777777778" y="384.2483201321371" width="6.007111111111111" height="31.362156987874982" fill="#dc2626"/><line x1="88.22222222222223" y1="407.60111115282103" x2="88.22222222222223" y2="474" stroke="#dc2626" stroke-width="1"/><rect x="85.21866666666668" y="415.61424978415107" width="6.007111111111111" height="36.38734562108192" fill="#dc2626"/><line x1="97.91111111111111" y1="354.44427343368744" x2="97.91111111111111" y2="468.2429145238185" stroke="#16a34a" stroke-width="1"/><rect x="94.90755555555556" y="374.1526708960547" width="6.007111111111111" height="77.84892450917829" fill="#16a34a"/><line x1="107.6" y1="286.37786703705103" x2="107.6" y2="393.8233417170315" stroke="#16a34a" stroke-width="1"/><rect x="104.59644444444444" y="290.2146664664589" width="6.007111111111111" height="83.93800442959582" fill="#16a34a"/><line x1="117.28888888888889" y1="163.98509703817726" x2="117.28888888888889" y2="296.9186906415407" stroke="#16a34a" stroke-width="1"/><rect x="114.28533333333334" y="204.63178047223988" width="6.007111111111111" height="85.56025000938479" fill="#16a34a"/><line x1="126.97777777777777" y1="202.13427681219275" x2="126.97777777777777" y2="246.312173880401" stroke="#dc2626" stroke-width="1"/><rect x="123.97422222222222" y="204.63178047223988" width="6.007111111111111" height="30.777394046323195" fill="#dc2626"/><line x1="136.66666666666666" y1="222.54816246856115" x2="136.66666666666666" y2="286.1137805473179" stroke="#dc2626" stroke-width="1"/><rect x="133.6631111111111" y="235.4054018544241" width="6.007111111111111" height="39.903468598671" fill="#dc2626"/><line x1="146.35555555555555" y1="230.97629415518608" x2="146.35555555555555" y2="278.3458650850257" stroke="#16a34a" stroke-width="1"/><rect x="143.352" y="236.74469762378482" width="6.007111111111111" height="38.56417282931028" fill="#16a34a"/><line x1="156.04444444444442" y1="212.5468298359549" x2="156.04444444444442" y2="259.38445512218937" stroke="#16a34a" stroke-width="1"/><rect x="153.04088888888887" y="236.71074364653336" width="6.007111111111111" height="1" fill="#16a34a"/><line x1="165.73333333333332" y1="226.43023386763775" x2="165.73333333333332" y2="253.10296933068068" stroke="#dc2626" stroke-width="1"/><rect x="162.72977777777777" y="236.70697098239435" width="6.007111111111111" height="12.41583768159461" fill="#dc2626"/><line x1="175.42222222222222" y1="221.97849018356553" x2="175.42222222222222" y2="253.66886895153732" stroke="#16a34a" stroke-width="1"/><rect x="172.41866666666667" y="233.6775216787417" width="6.007111111111111" height="15.445286985247265" fill="#16a34a"/><line x1="185.1111111111111" y1="216.31949397499915" x2="185.1111111111111" y2="235.6166710462105" stroke="#16a34a" stroke-width="1"/><rect x="182.10755555555554" y="221.03909681294346" width="6.007111111111111" height="12.642197529937249" fill="#16a34a"/><line x1="194.79999999999998" y1="191.79717707121148" x2="194.79999999999998" y2="270.608130935846" stroke="#dc2626" stroke-width="1"/><rect x="191.79644444444443" y="221.03532414880448" width="6.007111111111111" height="42.44247156424791" fill="#dc2626"/><line x1="204.48888888888888" y1="254.7780322084164" x2="204.48888888888888" y2="333.06835842186274" stroke="#dc2626" stroke-width="1"/><rect x="201.48533333333333" y="263.48156837719137" width="6.007111111111111" height="53.073839108074765" fill="#dc2626"/><line x1="214.17777777777778" y1="302.90213596606486" x2="214.17777777777778" y2="357.2284995683022" stroke="#dc2626" stroke-width="1"/><rect x="211.17422222222223" y="316.55540748526613" width="6.007111111111111" height="1.9995119936933747" fill="#dc2626"/><line x1="223.86666666666665" y1="242.12451668606187" x2="223.86666666666665" y2="351.22996358722185" stroke="#16a34a" stroke-width="1"/><rect x="220.8631111111111" y="260.791658846053" width="6.007111111111111" height="57.76326063290651" fill="#16a34a"/><line x1="233.55555555555554" y1="252.50688839671153" x2="233.55555555555554" y2="327.465952175382" stroke="#dc2626" stroke-width="1"/><rect x="230.552" y="260.7878861819137" width="6.007111111111111" height="31.98087390667837" fill="#dc2626"/><line x1="243.24444444444444" y1="271.2117571980931" x2="243.24444444444444" y2="312.40924959645645" stroke="#dc2626" stroke-width="1"/><rect x="240.2408888888889" y="292.76498742445307" width="6.007111111111111" height="4.327245767483646" fill="#dc2626"/><line x1="252.9333333333333" y1="276.72739216937566" x2="252.9333333333333" y2="329.1221517324225" stroke="#16a34a" stroke-width="1"/><rect x="249.92977777777776" y="288.43774165696914" width="6.007111111111111" height="8.650718870828541" fill="#16a34a"/><line x1="262.6222222222222" y1="208.96279890386285" x2="262.6222222222222" y2="289.7883554187471" stroke="#16a34a" stroke-width="1"/><rect x="259.6186666666666" y="246.48194376665796" width="6.007111111111111" height="41.955797890311175" fill="#16a34a"/><line x1="272.31111111111113" y1="219.07353879650145" x2="272.31111111111113" y2="252.537069709824" stroke="#16a34a" stroke-width="1"/><rect x="269.30755555555555" y="233.77938361049607" width="6.007111111111111" height="12.70633282030093" fill="#16a34a"/><line x1="282" y1="197.8447576860995" x2="282" y2="313.52973084575245" stroke="#dc2626" stroke-width="1"/><rect x="278.9964444444444" y="233.7756109463568" width="6.007111111111111" height="56.22778632831566" fill="#dc2626"/><line x1="291.68888888888887" y1="288.52074026802825" x2="291.68888888888887" y2="328.85051991441145" stroke="#dc2626" stroke-width="1"/><rect x="288.6853333333333" y="290.00339727467247" width="6.007111111111111" height="28.249709073163558" fill="#dc2626"/><line x1="301.37777777777774" y1="304.18484177333994" x2="301.37777777777774" y2="354.7913585344797" stroke="#dc2626" stroke-width="1"/><rect x="298.37422222222216" y="318.253106347836" width="6.007111111111111" height="23.247156424790603" fill="#dc2626"/><line x1="311.06666666666666" y1="276.71230151281975" x2="311.06666666666666" y2="345.0541123916065" stroke="#16a34a" stroke-width="1"/><rect x="308.0631111111111" y="280.69246217951144" width="6.007111111111111" height="60.80780059311519" fill="#16a34a"/><line x1="320.75555555555553" y1="274.04125530237627" x2="320.75555555555553" y2="419.32655129697076" stroke="#dc2626" stroke-width="1"/><rect x="317.75199999999995" y="280.7075528360674" width="6.007111111111111" height="80.44451743684084" fill="#dc2626"/><line x1="330.4444444444444" y1="319.3169976350464" x2="330.4444444444444" y2="378.08755959307797" stroke="#16a34a" stroke-width="1"/><rect x="327.4408888888888" y="326.7302826682684" width="6.007111111111111" height="34.418014940500825" fill="#16a34a"/><line x1="340.1333333333333" y1="308.4290889297647" x2="340.1333333333333" y2="361.5670633282031" stroke="#dc2626" stroke-width="1"/><rect x="337.12977777777775" y="326.7302826682684" width="6.007111111111111" height="14.630391531213718" fill="#dc2626"/><line x1="349.8222222222222" y1="275.54277562971606" x2="349.8222222222222" y2="344.0090844250911" stroke="#16a34a" stroke-width="1"/><rect x="346.8186666666666" y="310.4512369082924" width="6.007111111111111" height="30.928300611884936" fill="#16a34a"/><line x1="359.51111111111106" y1="291.28233041780857" x2="359.51111111111106" y2="313.6768647471753" stroke="#16a34a" stroke-width="1"/><rect x="356.5075555555555" y="296.601786853861" width="6.007111111111111" height="13.84945005443143" fill="#16a34a"/><line x1="369.2" y1="280.8773227223244" x2="369.2" y2="303.99620856638774" stroke="#16a34a" stroke-width="1"/><rect x="366.1964444444444" y="291.486054281317" width="6.007111111111111" height="5.119505236682926" fill="#16a34a"/><line x1="378.88888888888886" y1="278.93817335485585" x2="378.88888888888886" y2="300.3706783287662" stroke="#16a34a" stroke-width="1"/><rect x="375.8853333333333" y="287.3021697511168" width="6.007111111111111" height="4.180111866061225" fill="#16a34a"/><line x1="388.5777777777778" y1="257.826344832764" x2="388.5777777777778" y2="296.90359998498457" stroke="#16a34a" stroke-width="1"/><rect x="385.5742222222222" y="284.40099102819175" width="6.007111111111111" height="2.901178722925067" fill="#16a34a"/><line x1="398.26666666666665" y1="257.81879950448604" x2="398.26666666666665" y2="289.84494538083277" stroke="#16a34a" stroke-width="1"/><rect x="395.2631111111111" y="273.7092608581403" width="6.007111111111111" height="10.68795750591255" fill="#16a34a"/><line x1="407.9555555555555" y1="270.4194977288938" x2="407.9555555555555" y2="329.423964863546" stroke="#dc2626" stroke-width="1"/><rect x="404.95199999999994" y="273.7092608581403" width="6.007111111111111" height="54.281091632568916" fill="#dc2626"/><line x1="417.64444444444445" y1="314.9142985847818" x2="417.64444444444445" y2="336.16948834415723" stroke="#16a34a" stroke-width="1"/><rect x="414.64088888888887" y="324.7647246518264" width="6.007111111111111" height="3.221855174743837" fill="#16a34a"/><line x1="427.3333333333333" y1="307.0369758624573" x2="427.3333333333333" y2="352.13540298059246" stroke="#16a34a" stroke-width="1"/><rect x="424.32977777777774" y="323.65178873080833" width="6.007111111111111" height="1.1129359210180496" fill="#16a34a"/><line x1="437.0222222222222" y1="282.89192537257406" x2="437.0222222222222" y2="330.17849769135483" stroke="#16a34a" stroke-width="1"/><rect x="434.0186666666666" y="289.94303464844785" width="6.007111111111111" height="33.7276174030556" fill="#16a34a"/><line x1="446.7111111111111" y1="214.96133488494317" x2="446.7111111111111" y2="292.74612410375784" stroke="#16a34a" stroke-width="1"/><rect x="443.70755555555553" y="233.3002552648373" width="6.007111111111111" height="56.64655204774954" fill="#16a34a"/><line x1="456.4" y1="231.42146852359343" x2="456.4" y2="317.67588873456214" stroke="#dc2626" stroke-width="1"/><rect x="453.3964444444444" y="233.3002552648373" width="6.007111111111111" height="79.83711851045479" fill="#dc2626"/><line x1="466.08888888888885" y1="278.96458200382904" x2="466.08888888888885" y2="323.7989226322311" stroke="#16a34a" stroke-width="1"/><rect x="463.08533333333327" y="305.62222681031574" width="6.007111111111111" height="7.5151469649763385" fill="#16a34a"/><line x1="475.77777777777777" y1="277.76864747175216" x2="475.77777777777777" y2="315.20479372348814" stroke="#16a34a" stroke-width="1"/><rect x="472.7742222222222" y="278.9758999962463" width="6.007111111111111" height="26.653872142347666" fill="#16a34a"/><line x1="485.46666666666664" y1="259.9956267127144" x2="485.46666666666664" y2="312.48093021509834" stroke="#dc2626" stroke-width="1"/><rect x="482.46311111111106" y="278.9758999962463" width="6.007111111111111" height="7.666053530537795" fill="#dc2626"/><line x1="495.1555555555555" y1="199.57263786178163" x2="495.1555555555555" y2="292.15381583392775" stroke="#16a34a" stroke-width="1"/><rect x="492.15199999999993" y="224.99662149480093" width="6.007111111111111" height="61.64910469612221" fill="#16a34a"/><line x1="504.84444444444443" y1="222.5557077968394" x2="504.84444444444443" y2="279.4135290363754" stroke="#dc2626" stroke-width="1"/><rect x="501.84088888888886" y="224.99662149480093" width="6.007111111111111" height="6.564435601937021" fill="#dc2626"/><line x1="514.5333333333333" y1="214.73497503660056" x2="514.5333333333333" y2="264.97554337625286" stroke="#dc2626" stroke-width="1"/><rect x="511.5297777777777" y="231.56105709673795" width="6.007111111111111" height="21.696591463643443" fill="#dc2626"/><line x1="524.2222222222222" y1="241.8566575321898" x2="524.2222222222222" y2="263.4777957130524" stroke="#dc2626" stroke-width="1"/><rect x="521.2186666666666" y="253.2576485603814" width="6.007111111111111" height="1" fill="#dc2626"/><line x1="533.911111111111" y1="215.5649611471903" x2="533.911111111111" y2="255.87587747287822" stroke="#16a34a" stroke-width="1"/><rect x="530.9075555555555" y="227.82611959908414" width="6.007111111111111" height="26.223788430496597" fill="#16a34a"/><line x1="543.5999999999999" y1="180.19246217951138" x2="543.5999999999999" y2="242.6677803220843" stroke="#16a34a" stroke-width="1"/><rect x="540.5964444444444" y="210.6982244078232" width="6.007111111111111" height="17.127895191260933" fill="#16a34a"/><line x1="553.2888888888888" y1="78.61725289988368" x2="553.2888888888888" y2="218.20582604452127" stroke="#16a34a" stroke-width="1"/><rect x="550.2853333333333" y="115.59313412665642" width="6.007111111111111" height="95.12018093772298" fill="#16a34a"/><line x1="562.9777777777778" y1="105.06740117872295" x2="562.9777777777778" y2="131.4345508465033" stroke="#16a34a" stroke-width="1"/><rect x="559.9742222222222" y="106.18410976387996" width="6.007111111111111" height="9.405251698637443" fill="#16a34a"/><line x1="572.6666666666666" y1="98.51805623334216" x2="572.6666666666666" y2="122.83287660948241" stroke="#dc2626" stroke-width="1"/><rect x="569.6631111111111" y="106.18410976387996" width="6.007111111111111" height="12.298885093284312" fill="#dc2626"/><line x1="582.3555555555555" y1="100.71751942640508" x2="582.3555555555555" y2="134.35082022598462" stroke="#16a34a" stroke-width="1"/><rect x="579.352" y="111.94874056833973" width="6.007111111111111" height="6.530481624685535" fill="#16a34a"/><line x1="592.0444444444444" y1="95.6319681669733" x2="592.0444444444444" y2="125.73782799654649" stroke="#dc2626" stroke-width="1"/><rect x="589.0408888888888" y="111.9449679042007" width="6.007111111111111" height="10.608731558992389" fill="#dc2626"/><line x1="601.7333333333333" y1="106.15770111490677" x2="601.7333333333333" y2="126.48104283193808" stroke="#16a34a" stroke-width="1"/><rect x="598.7297777777778" y="112.57500281542102" width="6.007111111111111" height="9.974923983633062" fill="#16a34a"/><line x1="611.4222222222222" y1="72" x2="611.4222222222222" y2="118.23022635984842" stroke="#16a34a" stroke-width="1"/><rect x="608.4186666666667" y="109.16828709786418" width="6.007111111111111" height="3.4067157175568354" fill="#16a34a"/><line x1="621.1111111111111" y1="99.14809114456243" x2="621.1111111111111" y2="133.62646871128797" stroke="#dc2626" stroke-width="1"/><rect x="618.1075555555556" y="109.17205976200322" width="6.007111111111111" height="22.141765832050794" fill="#dc2626"/><line x1="630.8" y1="115.50636285145853" x2="630.8" y2="152.8632831562747" stroke="#dc2626" stroke-width="1"/><rect x="627.7964444444444" y="131.31005292991472" width="6.007111111111111" height="4.161248545365936" fill="#dc2626"/><line x1="640.4888888888888" y1="121.65580539810071" x2="640.4888888888888" y2="163.49465070010154" stroke="#dc2626" stroke-width="1"/><rect x="637.4853333333333" y="135.47130147528065" width="6.007111111111111" height="25.857840009009408" fill="#dc2626"/><line x1="650.1777777777777" y1="146.67611396824213" x2="650.1777777777777" y2="168.4821126919179" stroke="#16a34a" stroke-width="1"/><rect x="647.1742222222222" y="158.5222793648411" width="6.007111111111111" height="2.803089455309987" fill="#16a34a"/><line x1="659.8666666666667" y1="154.5572093547056" x2="659.8666666666667" y2="213.44849656518653" stroke="#dc2626" stroke-width="1"/><rect x="656.8631111111112" y="158.52605202898008" width="6.007111111111111" height="45.59641878448886" fill="#dc2626"/><line x1="669.5555555555555" y1="185.57228124178846" x2="669.5555555555555" y2="345.41251548481574" stroke="#dc2626" stroke-width="1"/><rect x="666.552" y="204.11869814932996" width="6.007111111111111" height="86.3525094785841" fill="#dc2626"/><line x1="679.2444444444444" y1="280.83205075265596" x2="679.2444444444444" y2="324.7760426442436" stroke="#dc2626" stroke-width="1"/><rect x="676.2408888888889" y="290.47498029205303" width="6.007111111111111" height="30.385036975862477" fill="#dc2626"/><line x1="688.9333333333333" y1="259.78813018506696" x2="688.9333333333333" y2="327.61308607680473" stroke="#16a34a" stroke-width="1"/><rect x="685.9297777777778" y="306.3578963174294" width="6.007111111111111" height="14.50212095048613" fill="#16a34a"/><line x1="698.6222222222221" y1="274.99573932955457" x2="698.6222222222221" y2="349.4945380832615" stroke="#16a34a" stroke-width="1"/><rect x="695.6186666666666" y="304.5998348286348" width="6.007111111111111" height="1.7580614887945671" fill="#16a34a"/><line x1="708.311111111111" y1="277.28197379781534" x2="708.311111111111" y2="311.2397237133527" stroke="#16a34a" stroke-width="1"/><rect x="705.3075555555555" y="284.2689477833252" width="6.007111111111111" height="20.330887045309623" fill="#16a34a"/><line x1="718" y1="224.05722812417886" x2="718" y2="292.1500431697887" stroke="#16a34a" stroke-width="1"/><rect x="714.9964444444445" y="238.92152483201323" width="6.007111111111111" height="45.347422951311955" fill="#16a34a"/><line x1="727.6888888888889" y1="232.16468335898503" x2="727.6888888888889" y2="317.9927925222419" stroke="#dc2626" stroke-width="1"/><rect x="724.6853333333333" y="238.92152483201323" width="6.007111111111111" height="53.86232591313507" fill="#dc2626"/><line x1="737.3777777777777" y1="283.92563534667227" x2="737.3777777777777" y2="318.18142572919413" stroke="#dc2626" stroke-width="1"/><rect x="734.3742222222222" y="292.78007808100904" width="6.007111111111111" height="3.297308457524707" fill="#dc2626"/><line x1="747.0666666666666" y1="270.46099703442326" x2="747.0666666666666" y2="346.4311348023577" stroke="#dc2626" stroke-width="1"/><rect x="744.0631111111111" y="296.07361387439477" width="6.007111111111111" height="43.87231127294575" fill="#dc2626"/><line x1="756.7555555555555" y1="291.93122864972406" x2="756.7555555555555" y2="360.62389729344204" stroke="#16a34a" stroke-width="1"/><rect x="753.752" y="301.3440256766395" width="6.007111111111111" height="38.57926348586682" fill="#16a34a"/><line x1="766.4444444444443" y1="288.52828559630626" x2="766.4444444444443" y2="303.9207552836068" stroke="#dc2626" stroke-width="1"/><rect x="763.4408888888888" y="301.3402530125005" width="6.007111111111111" height="1.3430684334996954" fill="#dc2626"/><line x1="776.1333333333333" y1="296.8356920304816" x2="776.1333333333333" y2="312.69597207102373" stroke="#dc2626" stroke-width="1"/><rect x="773.1297777777778" y="302.6833214460002" width="6.007111111111111" height="2.9087240512033645" fill="#dc2626"/><line x1="785.8222222222222" y1="300.8913059799542" x2="785.8222222222222" y2="316.29509365967203" stroke="#dc2626" stroke-width="1"/><rect x="782.8186666666667" y="305.58827283306425" width="6.007111111111111" height="1.5807462742596385" fill="#dc2626"/><line x1="795.5111111111111" y1="302.98890724126295" x2="795.5111111111111" y2="352.942753106348" stroke="#dc2626" stroke-width="1"/><rect x="792.5075555555555" y="307.1690191073239" width="6.007111111111111" height="18.780322084162435" fill="#dc2626"/><line x1="805.1999999999999" y1="324.9759938436128" x2="805.1999999999999" y2="375.7900071324" stroke="#dc2626" stroke-width="1"/><rect x="802.1964444444444" y="325.9493411914863" width="6.007111111111111" height="9.808926761515067" fill="#dc2626"/><line x1="814.8888888888888" y1="313.00533053042557" x2="814.8888888888888" y2="374.3526220954241" stroke="#dc2626" stroke-width="1"/><rect x="811.8853333333333" y="335.7582679530014" width="6.007111111111111" height="34.55760351364546" fill="#dc2626"/><line x1="824.5777777777777" y1="343.9524944630054" x2="824.5777777777777" y2="376.92180637411326" stroke="#16a34a" stroke-width="1"/><rect x="821.5742222222221" y="360.69180524794496" width="6.007111111111111" height="9.624066218701898" fill="#16a34a"/><line x1="834.2666666666667" y1="313.16378242426526" x2="834.2666666666667" y2="362.0311010173057" stroke="#16a34a" stroke-width="1"/><rect x="831.2631111111111" y="323.53860880663694" width="6.007111111111111" height="37.14942377716875" fill="#16a34a"/><line x1="843.9555555555555" y1="289.42240699725966" x2="843.9555555555555" y2="332.6156387251774" stroke="#16a34a" stroke-width="1"/><rect x="840.952" y="300.74794474267065" width="6.007111111111111" height="22.79066406396629" fill="#16a34a"/><line x1="853.6444444444444" y1="275.1730545440896" x2="853.6444444444444" y2="311.0850444836519" stroke="#dc2626" stroke-width="1"/><rect x="850.6408888888889" y="300.7441720785317" width="6.007111111111111" height="1.2902511355529782" fill="#dc2626"/><line x1="863.3333333333333" y1="292.41790232366077" x2="863.3333333333333" y2="360.43149142235086" stroke="#dc2626" stroke-width="1"/><rect x="860.3297777777777" y="302.03442321408465" width="6.007111111111111" height="52.17217237884313" fill="#dc2626"/><line x1="873.0222222222221" y1="333.2720822853712" x2="873.0222222222221" y2="368.35785877848275" stroke="#dc2626" stroke-width="1"/><rect x="870.0186666666666" y="354.2065955929278" width="6.007111111111111" height="9.175119186155541" fill="#dc2626"/><line x1="882.7111111111111" y1="345.72187394421724" x2="882.7111111111111" y2="434.945380832614" stroke="#dc2626" stroke-width="1"/><rect x="879.7075555555556" y="363.37794211494435" width="6.007111111111111" height="27.72908142197531" fill="#dc2626"/><line x1="892.4" y1="337.50878411351795" x2="892.4" y2="412.3471226397388" stroke="#16a34a" stroke-width="1"/><rect x="889.3964444444445" y="339.0744397312214" width="6.007111111111111" height="52.02881114155923" fill="#16a34a"/><line x1="902.0888888888888" y1="323.84042193776054" x2="902.0888888888888" y2="357.19454559105077" stroke="#dc2626" stroke-width="1"/><rect x="899.0853333333333" y="339.08198505949935" width="6.007111111111111" height="5.70426817823477" fill="#dc2626"/><line x1="911.7777777777777" y1="330.6727166935696" x2="911.7777777777777" y2="399.26352340553325" stroke="#dc2626" stroke-width="1"/><rect x="908.7742222222222" y="344.7862532377341" width="6.007111111111111" height="30.852847329104065" fill="#dc2626"/><line x1="921.4666666666666" y1="369.1123916062916" x2="921.4666666666666" y2="426.4908404970158" stroke="#dc2626" stroke-width="1"/><rect x="918.4631111111111" y="375.6428732309772" width="6.007111111111111" height="44.513664176583234" fill="#dc2626"/><line x1="931.1555555555555" y1="392.16714215999104" x2="931.1555555555555" y2="433.247681970044" stroke="#16a34a" stroke-width="1"/><rect x="928.1519999999999" y="412.6602537632796" width="6.007111111111111" height="7.4962836442808225" fill="#16a34a"/>
  
  <text x="480" y="510" text-anchor="middle" font-family="PingFang SC, Hiragino Sans GB, Noto Sans SC, sans-serif" font-size="13" fill="#334155">实盘费率大多在零轴附近小幅摆动；偏高或偏低时，价格仍可能沿原方向走一段时间。</text>
  <text x="480" y="538" text-anchor="middle" font-family="PingFang SC, Hiragino Sans GB, Noto Sans SC, sans-serif" font-size="12" fill="#64748b">真实行情 · BTCUSDT · 8h · Binance USDT-M · data.binance.vision · 2024-08-07 → 2024-09-05 UTC · 不构成交易建议</text>
</svg>
